<svg width="10" height="20" viewBox="0 0 10 20" fill="none" xmlns="http://www.w3.org/2000/svg">
<path d="M2.25 0C1.65326 0 1.08097 0.237053 0.65901 0.65901C0.237053 1.08097 0 1.65326 0 2.25V17.75C0 18.3467 0.237053 18.919 0.65901 19.341C1.08097 19.7629 1.65326 20 2.25 20H7.75C8.34674 20 8.91903 19.7629 9.34099 19.341C9.76295 18.919 10 18.3467 10 17.75V2.25C10 1.65326 9.76295 1.08097 9.34099 0.65901C8.91903 0.237053 8.34674 0 7.75 0H2.25ZM1.5 17H3.25C3.44891 17 3.63968 16.921 3.78033 16.7803C3.92098 16.6397 4 16.4489 4 16.25C4 16.0511 3.92098 15.8603 3.78033 15.7197C3.63968 15.579 3.44891 15.5 3.25 15.5H1.5V14H5.25C5.44891 14 5.63968 13.921 5.78033 13.7803C5.92098 13.6397 6 13.4489 6 13.25C6 13.0511 5.92098 12.8603 5.78033 12.7197C5.63968 12.579 5.44891 12.5 5.25 12.5H1.5V10.75H3.25C3.44891 10.75 3.63968 10.671 3.78033 10.5303C3.92098 10.3897 4 10.1989 4 10C4 9.80109 3.92098 9.61032 3.78033 9.46967C3.63968 9.32902 3.44891 9.25 3.25 9.25H1.5V7.5H5.25C5.44891 7.5 5.63968 7.42098 5.78033 7.28033C5.92098 7.13968 6 6.94891 6 6.75C6 6.55109 5.92098 6.36032 5.78033 6.21967C5.63968 6.07902 5.44891 6 5.25 6H1.5V4.5H3.25C3.44891 4.5 3.63968 4.42098 3.78033 4.28033C3.92098 4.13968 4 3.94891 4 3.75C4 3.55109 3.92098 3.36032 3.78033 3.21967C3.63968 3.07902 3.44891 3 3.25 3H1.5V2.25C1.5 2.05109 1.57902 1.86032 1.71967 1.71967C1.86032 1.57902 2.05109 1.5 2.25 1.5H7.75C7.94891 1.5 8.13968 1.57902 8.28033 1.71967C8.42098 1.86032 8.5 2.05109 8.5 2.25V17.75C8.5 17.9489 8.42098 18.1397 8.28033 18.2803C8.13968 18.421 7.94891 18.5 7.75 18.5H2.25C2.05109 18.5 1.86032 18.421 1.71967 18.2803C1.57902 18.1397 1.5 17.9489 1.5 17.75V17Z" fill="#181D27"/>
</svg>
